<?xml version="1.0" encoding="UTF-8"?>
<svg width="30px" height="24px" viewBox="0 0 30 24" version="1.1" xmlns="http://www.w3.org/2000/svg" xmlns:xlink="http://www.w3.org/1999/xlink">
    <title>Untitled</title>
    <g id="Page-1" stroke="none" stroke-width="1" fill="#fff" fill-rule="evenodd">
        <path d="M29.5379973,2.86149646 C28.4761146,3.36826965 27.3376669,3.69576832 26.1688195,3.83071199 C27.3570396,3.03197682 28.2491323,1.86414636 28.7072412,0.507687294 C27.8303319,1.06152474 25.8919008,1.8461278 24.9226852,1.8461278 C23.7435518,0.675743862 22.1533049,0.0131409738 20.4919856,0 C18.8757424,-0.00159114618 17.3252381,0.639753132 16.182381,1.78261024 C15.0395239,2.92546735 14.3981796,4.47597168 14.3997737,6.09221491 C14.3977486,6.54203841 14.4441694,6.99077214 14.5382331,7.43065542 C9.9690741,7.29219606 4.61531208,5.03069314 1.61535923,1.10767786 C0.0539561816,3.8580995 0.855741092,7.34586386 3.46148406,9.13832089 C2.76918725,9.23062713 1.43074675,9.09216777 0.830756175,8.4921772 C0.784603054,10.6152208 1.79997171,13.4305611 5.5383745,14.4459298 C4.79992457,14.8151548 3.5537903,14.7228485 2.99995285,14.6305423 C3.18456534,16.430514 5.72298698,18.7843231 8.44602111,18.7843231 C7.47680557,19.891998 4.15378087,21.9688885 0,21.3227448 C2.87897828,23.0739196 6.18395875,24 9.55369601,23.9996258 C14.2219303,24.03059 18.6971004,22.1387132 21.927527,18.7685925 C25.1579536,15.3984717 26.858796,10.8472653 26.6303507,6.18452116 L26.6303507,5.95375555 C27.7990305,5.1306102 28.7882599,4.07857264 29.5379973,2.86149646 L29.5379973,2.86149646 Z" id="twitter" fill="#181818" fill-rule="nonzero"></path>
    </g>
</svg>