<?xml version="1.0" encoding="UTF-8"?>
<svg width="27px" height="24px" viewBox="0 0 27 24" version="1.1" xmlns="http://www.w3.org/2000/svg" xmlns:xlink="http://www.w3.org/1999/xlink">
    <title>Slice 1</title>
    <g id="Page-1" stroke="none" stroke-width="1" fill="none" fill-rule="evenodd">
        <path d="M0.47260274,7.84931507 L5.81506849,7.84931507 L5.81506849,24 L0.47260274,24 L0.47260274,7.84931507 Z M19.6027397,7.31506849 C17.260274,7.31506849 15.8630137,8.17808219 14.3835616,10.0684932 L14.3835616,7.84931507 L9.04109589,7.84931507 L9.04109589,24 L14.4246575,24 L14.4246575,15.2465753 C14.4246575,13.3972603 15.369863,11.5890411 17.5068493,11.5890411 C19.6438356,11.5890411 20.9178082,13.3972603 20.9178082,15.2054795 L20.9178082,24 L26.3013699,24 L26.3013699,14.8356164 C26.3013699,8.46575342 21.9863014,7.31506849 19.6027397,7.31506849 Z M3.16438356,0 C1.39726027,0 0,1.2739726 0,2.83561644 C0,4.39726027 1.39726027,5.67123288 3.16438356,5.67123288 C4.93150685,5.67123288 6.32876712,4.39726027 6.32876712,2.83561644 C6.32876712,1.2739726 4.93150685,0 3.16438356,0 Z" id="linkedin" fill="#181818" fill-rule="nonzero"></path>
    </g>
</svg>