<svg width="30" height="24" viewBox="0 0 30 24" xmlns="http://www.w3.org/2000/svg"><path d="M29.538 2.861c-1.062.507-2.2.835-3.37.97a6.516 6.516 0 002.54-3.323c-.878.554-2.816 1.338-3.785 1.338A6.36 6.36 0 0020.492 0 6.086 6.086 0 0014.4 6.092c-.002.45.044.899.138 1.339-4.569-.139-9.923-2.4-12.923-6.323a6.095 6.095 0 001.846 8.03c-.692.093-2.03-.046-2.63-.646-.046 2.123.969 4.939 4.707 5.954-.738.37-1.984.277-2.538.185.185 1.8 2.723 4.153 5.446 4.153-.97 1.108-4.292 3.185-8.446 2.539A18.38 18.38 0 009.554 24 16.984 16.984 0 0026.63 6.185v-.231a10.551 10.551 0 002.908-3.093z" fill="#fff"/></svg>